HIERARCHY
ROOT Hips
{
    OFFSET 0.000000 0.000000 0.000000
    CHANNELS 6 Xposition Yposition Zposition Zrotation Xrotation Yrotation
    JOINT Spine
    {
        OFFSET -0.000000 7.236184 0.000000
        CHANNELS 3 Zrotation Xrotation Yrotation
        JOINT Spine1
        {
            OFFSET -0.000000 20.420147 0.000000
            CHANNELS 3 Zrotation Xrotation Yrotation
            JOINT Neck
            {
                OFFSET -0.000000 20.336288 1.848754
                CHANNELS 3 Zrotation Xrotation Yrotation
                JOINT Head
                {
                    OFFSET -0.000000 12.354461 -1.764923
                    CHANNELS 3 Zrotation Xrotation Yrotation
                    End Site
                    {
                        OFFSET -0.000000 22.061537 0.000000
                    }
                }
            }
            JOINT LeftShoulder
            {
                OFFSET 3.573296 18.396038 -0.314103
                CHANNELS 3 Zrotation Xrotation Yrotation
                JOINT LeftArm
                {
                    OFFSET 10.880760 0.000000 0.000000
                    CHANNELS 3 Zrotation Xrotation Yrotation
                    JOINT LeftForeArm
                    {
                        OFFSET 27.185530 0.000000 0.000000
                        CHANNELS 3 Zrotation Xrotation Yrotation
                        JOINT LeftHand
                        {
                            OFFSET 27.825975 0.000000 0.000000
                            CHANNELS 3 Zrotation Xrotation Yrotation
                            End Site
                            {
                                OFFSET 13.236923 0.000000 0.000000
                            }
                        }
                    }
                }
            }
            JOINT RightShoulder
            {
                OFFSET -3.474926 18.396038 -0.314103
                CHANNELS 3 Zrotation Xrotation Yrotation
                JOINT RightArm
                {
                    OFFSET -10.880760 0.000000 0.000000
                    CHANNELS 3 Zrotation Xrotation Yrotation
                    JOINT RightForeArm
                    {
                        OFFSET -27.185530 0.000000 0.000000
                        CHANNELS 3 Zrotation Xrotation Yrotation
                        JOINT RightHand
                        {
                            OFFSET -27.825975 0.000000 0.000000
                            CHANNELS 3 Zrotation Xrotation Yrotation
                            End Site
                            {
                                OFFSET -13.236923 0.000000 0.000000
                            }
                        }
                    }
                }
            }
        }
    }
    JOINT LeftUpLeg
    {
        OFFSET 8.824615 0.000000 0.000000
        CHANNELS 3 Zrotation Xrotation Yrotation
        JOINT LeftLeg
        {
            OFFSET -0.000000 -35.111282 0.000000
            CHANNELS 3 Zrotation Xrotation Yrotation
            JOINT LeftFoot
            {
                OFFSET -0.000000 -42.324711 0.000000
                CHANNELS 3 Zrotation Xrotation Yrotation
                JOINT LeftToeBase
                {
                    OFFSET -0.000000 -5.735999 13.236923
                    CHANNELS 3 Zrotation Xrotation Yrotation
                    End Site
                    {
                        OFFSET -0.000000 0.000000 3.529846
                    }
                }
            }
        }
    }
    JOINT RightUpLeg
    {
        OFFSET -8.824615 0.000000 0.000000
        CHANNELS 3 Zrotation Xrotation Yrotation
        JOINT RightLeg
        {
            OFFSET -0.000000 -35.111282 0.000000
            CHANNELS 3 Zrotation Xrotation Yrotation
            JOINT RightFoot
            {
                OFFSET -0.000000 -42.324711 0.000000
                CHANNELS 3 Zrotation Xrotation Yrotation
                JOINT RightToeBase
                {
                    OFFSET -0.000000 -5.735999 13.236923
                    CHANNELS 3 Zrotation Xrotation Yrotation
                    End Site
                    {
                        OFFSET -0.000000 0.000000 3.529846
                    }
                }
            }
        }
    }
}
MOTION
Frames:    11
Frame Time:    0.008333
-5.439406    81.302315    99.730972    -0.479472    -8.466313    -173.213470    -1.399775    -15.349113    0.331578    -0.534222    10.102451    0.567460    3.687733    5.336916    -2.687043    5.153345    -11.615181    -1.924889    0.582832    19.135071    -3.384127    -41.239388    45.005322    -44.948978    2.221127    -7.951114    -17.035831    15.122829    -7.358235    1.999954    5.679431    19.162809    -4.577519    39.766048    43.162315    39.198650    -4.504756    -9.356983    19.158243    -11.896193    -8.175184    -4.174751    5.298296    -8.681170    -2.776036    -2.633355    8.595014    -4.606391    -4.583386    -7.171830    -6.929338    -0.437741    -0.669118    0.485808    -7.027099    -3.579605    -0.149498    3.238842    3.911707    2.775820    1.247349    -5.880034    -12.485110    -2.426860    0.015070    2.624719    
-5.429372    81.301300    99.710243    -0.454073    -8.463794    -173.181259    -1.403303    -15.348640    0.307929    -0.504644    10.084612    0.541595    3.669238    5.314064    -2.681904    5.169144    -11.626806    -1.914098    0.614043    19.062298    -3.434309    -41.206669    44.895275    -44.984177    2.287041    -7.956533    -17.291788    14.936585    -7.349663    2.017694    5.669106    19.159706    -4.602993    40.169769    42.825993    38.885937    -4.787359    -9.529448    19.711927    -11.809378    -8.280844    -4.171650    5.335290    -8.690228    -2.760701    -2.639117    8.625927    -4.637316    -4.602825    -7.195061    -6.942633    -0.433312    -0.662568    0.480887    -6.979415    -3.601937    -0.181611    3.219430    3.988028    2.802090    1.192562    -5.872974    -12.527239    -2.420820    -0.000693    2.618243    
-5.416776    81.301971    99.693054    -0.424963    -8.467164    -173.165512    -1.401389    -15.348835    0.287784    -0.474199    10.063477    0.518532    3.650973    5.291198    -2.671048    5.171535    -11.641577    -1.900506    0.647510    18.992142    -3.482823    -41.171265    44.787289    -45.019142    2.378617    -7.942465    -17.547224    14.828945    -7.316197    2.033936    5.655925    19.153229    -4.624819    40.531857    42.514130    38.609310    -5.092700    -9.712862    20.308493    -11.710788    -8.390985    -4.150589    5.378015    -8.706529    -2.742895    -2.644406    8.658685    -4.650565    -4.626801    -7.217940    -6.959884    -0.429224    -0.656202    0.476345    -6.925915    -3.643697    -0.206429    3.198475    4.076021    2.833788    1.144584    -5.867667    -12.564722    -2.411235    -0.025080    2.607965    
-5.401127    81.304077    99.678719    -0.390264    -8.473348    -173.166534    -1.391948    -15.347639    0.272038    -0.442643    10.039566    0.498526    3.633169    5.267959    -2.654957    5.161487    -11.656788    -1.884473    0.683368    18.923998    -3.530491    -41.135860    44.680641    -45.050663    2.496355    -7.911734    -17.804304    14.793646    -7.260213    2.050325    5.639427    19.143518    -4.641729    40.850952    42.229652    38.369457    -5.423302    -9.906576    20.943432    -11.596865    -8.503524    -4.116878    5.430077    -8.725586    -2.720194    -2.650462    8.691435    -4.649545    -4.654723    -7.240756    -6.979540    -0.425002    -0.649552    0.471654    -6.863570    -3.700380    -0.221283    3.175530    4.173162    2.869547    1.101690    -5.863693    -12.598006    -2.397485    -0.057347    2.593208    
-5.381920    81.307343    99.666504    -0.348338    -8.479189    -173.184631    -1.373064    -15.342710    0.261029    -0.409936    10.013308    0.482009    3.615992    5.243688    -2.633905    5.139800    -11.669898    -1.866264    0.722051    18.857100    -3.577884    -41.102993    44.574425    -45.075489    2.641603    -7.867454    -18.066246    14.820850    -7.184268    2.068926    5.618731    19.130926    -4.652372    41.127846    41.973251    38.166058    -5.782748    -10.109632    21.614902    -11.466264    -8.615575    -4.076159    5.494602    -8.742759    -2.690884    -2.657977    8.722530    -4.636864    -4.685963    -7.264035    -7.000321    -0.420289    -0.642505    0.466418    -6.789510    -3.767261    -0.224079    3.150119    4.276909    2.908057    1.064637    -5.860795    -12.626794    -2.379128    -0.097816    2.573496    
-5.360154    81.311676    99.657028    -0.305397    -8.489444    -173.219803    -1.350760    -15.338552    0.254772    -0.376969    9.985298    0.469593    3.599435    5.217615    -2.608808    5.108178    -11.677693    -1.846618    0.762870    18.791945    -3.624335    -41.075996    44.469872    -45.089897    2.812802    -7.813708    -18.330942    14.895558    -7.092642    2.090401    5.593598    19.116009    -4.656099    41.360214    41.748394    38.000835    -6.165943    -10.316534    22.307955    -11.322252    -8.721821    -4.034067    5.563067    -8.761683    -2.657036    -2.665523    8.750413    -4.610370    -4.719552    -7.286788    -7.022803    -0.414984    -0.634296    0.460524    -6.712685    -3.847287    -0.217438    3.124629    4.385292    2.949937    1.035504    -5.859211    -12.650179    -2.356959    -0.144346    2.549680    
-5.335893    81.316666    99.649605    -0.263240    -8.502227    -173.271469    -1.326802    -15.333718    0.252755    -0.343664    9.955986    0.461477    3.583319    5.189865    -2.580120    5.067738    -11.679503    -1.825729    0.806224    18.728077    -3.670503    -41.058266    44.364807    -45.090046    3.011083    -7.752804    -18.601879    15.001229    -6.987427    2.115219    5.563254    19.099771    -4.652473    41.551224    41.552505    37.871517    -6.574921    -10.527148    23.022194    -11.165488    -8.820733    -3.994007    5.633791    -8.779027    -2.619030    -2.672777    8.773752    -4.570961    -4.753999    -7.309208    -7.046649    -0.408922    -0.625402    0.453789    -6.634833    -3.936552    -0.203291    3.099267    4.496499    2.995693    1.015529    -5.858964    -12.667186    -2.332800    -0.194464    2.523721    
-5.308071    81.321404    99.641891    -0.216238    -8.504389    -173.337860    -1.294963    -15.316849    0.255647    -0.308869    9.926524    0.456641    3.567026    5.159090    -2.548338    5.019496    -11.673239    -1.803921    0.852065    18.665083    -3.716073    -41.053238    44.256428    -45.072178    3.236295    -7.685693    -18.882347    15.123405    -6.869481    2.143303    5.526595    19.083027    -4.641993    41.704220    41.382046    37.776096    -7.009495    -10.740373    23.757504    -10.997153    -8.910173    -3.958132    5.716332    -8.779800    -2.574439    -2.681992    8.790803    -4.525661    -4.786704    -7.332559    -7.068952    -0.402024    -0.614808    0.446126    -6.546531    -4.017743    -0.180006    3.071927    4.604774    3.043009    1.003227    -5.859133    -12.676469    -2.309616    -0.243506    2.498809    
-5.278737    81.326035    99.635635    -0.176989    -8.508584    -173.418381    -1.268534    -15.298631    0.261791    -0.273438    9.896593    0.455884    3.549954    5.125794    -2.514447    4.965149    -11.659432    -1.781672    0.899558    18.603745    -3.759842    -41.064518    44.142624    -45.033504    3.483801    -7.612937    -19.171595    15.250109    -6.740219    2.174060    5.483224    19.066559    -4.625590    41.821106    41.235939    37.712410    -7.463075    -10.952849    24.504650    -10.821175    -8.987737    -3.928616    5.792327    -8.776731    -2.529339    -2.689567    8.801589    -4.467379    -4.816644    -7.355196    -7.092239    -0.394296    -0.603136    0.437541    -6.466406    -4.103036    -0.155627    3.047029    4.711873    3.096460    0.994920    -5.860039    -12.679048    -2.290669    -0.286307    2.478456    
-5.247638    81.330162    99.630028    -0.143684    -8.510383    -173.511093    -1.245590    -15.274819    0.271097    -0.236997    9.866058    0.458776    3.531492    5.089458    -2.479167    4.906139    -11.637469    -1.759373    0.948151    18.544823    -3.800832    -41.094852    44.020088    -44.971863    3.750558    -7.533769    -19.471340    15.373847    -6.599297    2.206992    5.432880    19.051577    -4.604547    41.906265    41.109516    37.676540    -7.931373    -11.162094    25.261774    -10.641293    -9.051207    -3.906387    5.864633    -8.765345    -2.483077    -2.696189    8.806172    -4.399953    -4.844063    -7.377502    -7.115315    -0.386049    -0.590537    0.428379    -6.391455    -4.185821    -0.131134    3.023795    4.814751    3.153751    0.988154    -5.860721    -12.673052    -2.278089    -0.319883    2.464961    
-5.214505    81.333771    99.625137    -0.116363    -8.510638    -173.615616    -1.226531    -15.245378    0.283692    -0.198770    9.834129    0.465106    3.511081    5.049952    -2.442748    4.842281    -11.608676    -1.737229    0.997838    18.487789    -3.838147    -41.147148    43.885517    -44.884541    4.037329    -7.445936    -19.786922    15.492199    -6.443857    2.242356    5.374444    19.038445    -4.580731    41.964493    40.998047    37.663631    -8.415001    -11.368031    26.037519    -10.460976    -9.099161    -3.891284    5.933163    -8.747065    -2.435614    -2.701687    8.805443    -4.323615    -4.871120    -7.399592    -7.138535    -0.377707    -0.577203    0.419112    -6.322021    -4.266731    -0.107026    3.002825    4.913334    3.216605    0.980147    -5.860839    -12.660574    -2.272761    -0.342935    2.459273    
